{"title":"City Island (2009)","uid":8718266,"size":738921436,"categoryP":"video","categoryS":"movies","magnet":"?xt=urn:btih:047c024c52e8cdfda85d62965a5c8bb8c8c6e734&amp;dn=City+Island+%282009%29&amp;tr=udp%3A%2F%2Ftracker.openbittorrent.com%3A80&amp;tr=udp%3A%2F%2Fopen.demonii.com%3A1337&amp;tr=udp%3A%2F%2Ftracker.coppersurfer.tk%3A6969&amp;tr=udp%3A%2F%2Fexodus.desync.com%3A6969","seeders":2,"leechers":0,"uploader":"mediterraneanu","files":-1,"time":1374369531,"description":"The Rizzos, a family who doesn't share their habits, aspirations, and careers with one another, find their delicate web of lies disturbed by the arrival of a young ex-con (Strait) brought home by Vince (Garcia), the patriarch of the family, who is a corrections officer in real life, and a hopeful actor in private.\n\nGeneral\nComplete name                            : City Island.2009.DvdRip.Xvid-Noir.avi\nFormat                                   : AVI\nFormat/Info                              : Audio Video Interleave\nFile size                                : 701 MiB\nDuration                                 : 1h 39mn\nOverall bit rate mode                    : Variable\nOverall bit rate                         : 990 Kbps\nWriting application                      : Noir's Hyper HD Xvid\nWriting library                          : VirtualDub build 32661/release\nOriginal source form                     : Noir's Shit\nCopyright                                : By Noir\n\nVideo\nID                                       : 0\nFormat                                   : MPEG-4 Visual\nFormat profile                           : Advanced Simple@L5\nFormat settings, BVOP                    : 5\nFormat settings, QPel                    : No\nFormat settings, GMC                     : No warppoints\nFormat settings, Matrix                  : Default (H.263)\nMuxing mode                              : Packed bitstream\nCodec ID                                 : XVID\nCodec ID/Hint                            : XviD\nDuration                                 : 1h 39mn\nBit rate                                 : 865 Kbps\nWidth                                    : 624 pixels\nHeight                                   : 336 pixels\nDisplay aspect ratio                     : 1.85:1\nFrame rate                               : 25.000 fps\nColor space                              : YUV\nChroma subsampling                       : 4:2:0\nBit depth                                : 8 bits\nScan type                                : Progressive\nCompression mode                         : Lossy\nBits/(Pixel*Frame)                       : 0.165\nStream size                              : 612 MiB (87%)\nWriting library                          : XviD 1.3.0.dev55\n\nAudio\nID                                       : 1\nFormat                                   : MPEG Audio\nFormat version                           : Version 1\nFormat profile                           : Layer 3\nMode                                     : Joint stereo\nMode extension                           : MS Stereo\nCodec ID                                 : 55\nCodec ID/Hint                            : MP3\nDuration                                 : 1h 39mn\nBit rate mode                            : Variable\nBit rate                                 : 112 Kbps\nChannel(s)                               : 2 channels\nSampling rate                            : 44.1 KHz\nCompression mode                         : Lossy\nStream size                              : 80.1 MiB (11%)\nAlignment                                : Aligned on interleaves\nInterleave, duration                     : 26 ms (0.65 video frame)\nInterleave, preload duration             : 520 ms\nWriting library                          : LAME3.98.2","torrent":{"xt":"urn:btih:047c024c52e8cdfda85d62965a5c8bb8c8c6e734","amp;dn":"City+Island+%282009%29","amp;tr":["udp%3A%2F%2Ftracker.openbittorrent.com%3A80","udp%3A%2F%2Fopen.demonii.com%3A1337","udp%3A%2F%2Ftracker.coppersurfer.tk%3A6969","udp%3A%2F%2Fexodus.desync.com%3A6969"],"infoHash":"047c024c52e8cdfda85d62965a5c8bb8c8c6e734","infoHashBuffer":{"type":"Buffer","data":[4,124,2,76,82,232,205,253,168,93,98,150,90,92,139,184,200,198,231,52]},"announce":[],"urlList":[]}}